<svg width="20" height="19" viewBox="0 0 20 19" fill="none" xmlns="http://www.w3.org/2000/svg">
<path d="M19.4223 14.8774C18.657 14.1503 16.8191 13.0571 15.9132 12.6465C14.8615 12.1667 14.4762 12.1766 13.7317 12.6861C13.1121 13.1115 12.7112 13.5072 11.9979 13.3588C11.2846 13.2154 9.87889 12.2013 8.51479 10.9103C7.1507 9.61431 6.08858 8.27875 5.9376 7.60107C5.78661 6.91845 6.20312 6.54252 6.64567 5.95388C7.18194 5.24652 7.19756 4.88048 6.68733 3.88128C6.25519 3.01564 5.10977 1.27446 4.33921 0.547319C3.57386 -0.179821 3.40205 -0.0215318 2.98032 0.121918C2.98032 0.121918 2.35555 0.359351 1.73598 0.750127C0.970629 1.23489 0.543699 1.6405 0.241725 2.24893C-0.0550438 2.85735 -0.39867 3.99011 1.3507 6.94813C2.76165 9.33731 4.14657 11.1477 6.20312 13.0967L6.20833 13.1016L6.21354 13.1066C8.27009 15.0604 10.1705 16.3762 12.6852 17.7167C15.7986 19.3788 16.9909 19.0523 17.6313 18.7703C18.2717 18.4884 18.6986 18.0828 19.2089 17.3507C19.6202 16.7621 19.8701 16.1685 19.8701 16.1685C20.0211 15.7678 20.1929 15.6046 19.4223 14.8774Z" fill="#30704C"/>
</svg>
